0
SECTION
2
HEADER
9
$INSUNITS
70
4
9
$ACADVER
1
AC1014
9
$HANDSEED
5
FFFF
0
ENDSEC
0
SECTION
2
TABLES
0
TABLE
2
VPORT
5
8
100
AcDbSymbolTable
0
ENDTAB
0
TABLE
2
LTYPE
5
5
100
AcDbSymbolTable
0
LTYPE
5
14
100
AcDbSymbolTableRecord
100
AcDbLinetypeTableRecord
2
BYBLOCK
70
0
0
LTYPE
5
15
100
AcDbSymbolTableRecord
100
AcDbLinetypeTableRecord
2
BYLAYER
70
0
0
LTYPE
5
16
100
AcDbSymbolTableRecord
100
AcDbLinetypeTableRecord
2
DASHED
70
0
3
Dashed __ __ __ __ __ __ __ __ __ __ __ __ __ _
72
65
73
2
40
0.75
49
0.5
74
0
49
-0.25
74
0
0
ENDTAB
0
TABLE
2
LAYER
5
2
100
AcDbSymbolTable
70
2
0
LAYER
5
50
100
AcDbSymbolTableRecord
100
AcDbLayerTableRecord
2
0
70
0
62
7
6
CONTINUOUS
0
ENDTAB
0
TABLE
2
STYLE
5
3
100
AcDbSymbolTable
70
1
0
STYLE
5
11
100
AcDbSymbolTableRecord
100
AcDbTextStyleTableRecord
2
STANDARD
70
0
0
ENDTAB
0
TABLE
2
VIEW
5
6
100
AcDbSymbolTable
70
0
0
ENDTAB
0
TABLE
2
UCS
5
7
100
AcDbSymbolTable
70
0
0
ENDTAB
0
TABLE
2
APPID
5
9
100
AcDbSymbolTable
70
2
0
APPID
5
12
100
AcDbSymbolTableRecord
100
AcDbRegAppTableRecord
2
ACAD
70
0
0
ENDTAB
0
TABLE
2
DIMSTYLE
5
A
100
AcDbSymbolTable
70
1
0
ENDTAB
0
TABLE
2
BLOCK_RECORD
5
1
100
AcDbSymbolTable
70
1
0
BLOCK_RECORD
5
1F
100
AcDbSymbolTableRecord
100
AcDbBlockTableRecord
2
*MODEL_SPACE
0
BLOCK_RECORD
5
1B
100
AcDbSymbolTableRecord
100
AcDbBlockTableRecord
2
*PAPER_SPACE
0
ENDTAB
0
ENDSEC
0
SECTION
2
BLOCKS
0
BLOCK
5
20
100
AcDbEntity
100
AcDbBlockBegin
2
*MODEL_SPACE
0
ENDBLK
5
21
100
AcDbEntity
100
AcDbBlockEnd
0
BLOCK
5
1C
100
AcDbEntity
100
AcDbBlockBegin
2
*PAPER_SPACE
0
ENDBLK
5
1D
100
AcDbEntity
100
AcDbBlockEnd
0
ENDSEC
0
SECTION
2
ENTITIES
0
CIRCLE
5
100
100
AcDbEntity
8
0
100
AcDbCircle
10
-112.07144813869198
20
-36.847578847274256
30
0
40
1.9999999999999996
210
0
220
-0
230
1
0
LWPOLYLINE
5
101
100
AcDbEntity
8
0
100
AcDbPolyline
90
240
70
1
43
0.0
10
-180.38163421555163
20
-35.794242990759521
10
-181.07144794497685
20
-35.847578832373117
10
-180.3945950077354
20
-35.991393069048442
10
-179.71749192871391
20
-36.133531689043394
10
-179.0401427289892
20
-36.274012287445984
10
-178.36255132358809
20
-36.412851810025899
10
-177.68472152434157
20
-36.550066550785893
10
-177.00665704274803
20
-36.6856721494377
10
-176.32836149284577
20
-36.819683588798227
10
-175.64983839409473
20
-36.952115192102212
10
-174.97109117426831
20
-37.082980620226429
10
-174.29212317235496
20
-37.212292868821052
10
-173.61293764147092
20
-37.340064265342939
10
-172.93353775178247
20
-37.466306465985724
10
-172.25392659344038
20
-37.591030452500874
10
-171.5741071795253
20
-37.714246528903857
10
-170.89408244900534
20
-37.835964318059027
10
-170.21385526970548
20
-37.956192758136524
10
-169.5334284412906
20
-38.074940098933993
10
-168.85280469826091
20
-38.192213898055435
10
-168.17198671296197
20
-38.308021016939186
10
-167.49097709860848
20
-38.422367616726333
10
-166.8097784123234
20
-38.535259153960375
10
-166.12839315819272
20
-38.646700376108292
10
-165.44682379033645
20
-38.756695316892646
10
-164.76507271599638
20
-38.865247291423415
10
-164.08314229864209
20
-38.972358891117779
10
-163.4010348610957
20
-39.078031978395032
10
-162.71875268867518
20
-39.182267681133006
10
-162.03629803235947
20
-39.285066386871407
10
-161.35367311197422
20
-39.386427736746526
10
-160.67088011940052
20
-39.486350619140431
10
-159.98792122180697
20
-39.584833163026914
10
-159.30479856490751
20
-39.681872730994655
10
-158.62151427624468
20
-39.777465911927138
10
-157.93807046850159
20
-39.871608513316971
10
-157.25446924284253
20
-39.964295553190603
10
-156.57071269228499
20
-40.05552125161784
10
-155.88680290510445
20
-40.145279021778244
10
-155.20274196827373
20
-40.233561460554448
10
-154.51853197093934
20
-40.320360338620148
10
-153.83417500793678
20
-40.405666589987774
10
-153.14967318334752
20
-40.489470300977963
10
-152.46502861409959
20
-40.571760698570046
10
-151.78024343361568
20
-40.652526138089087
10
-151.09531979551076
20
-40.731754090181475
10
-150.41025987734318
20
-40.809431127026762
10
-149.72506588442241
20
-40.885542907728947
10
-149.03974005367786
20
-40.96007416282557
10
-148.3542846575923
20
-41.033008677847093
10
-147.66870200820503
20
-41.10432927585336
10
-146.98299446118961
20
-41.174017798866871
10
-146.29716442001131
20
-41.242055088115244
10
-145.6112143401711
20
-41.308420962986993
10
-144.92514673354128
20
-41.373094198595496
10
-144.23896417280122
20
-41.436052501835725
10
-143.55266929598025
20
-41.497272485807059
10
-142.86626481111625
20
-41.556729642462557
10
-142.17975350103953
20
-41.61439831333108
10
-141.49313822829214
20
-41.670251658142504
10
-140.80642194019407
20
-41.724261621168488
10
-140.11960767406856
20
-41.77639889507126
10
-139.43269856264081
20
-41.826632882030069
10
-138.74569783962485
20
-41.874931651889838
10
-138.05860884551581
20
-41.921261897047231
10
-137.37143503360619
20
-41.965588883757334
10
-136.68417997624758
20
-42.007876399506756
10
-135.99684737138003
20
-42.048086696056977
10
-135.30944104935628
20
-42.086180427713998
10
-134.62196498008925
20
-42.122116584325454
10
-133.93442328055542
20
-42.1558524184437
10
-133.24682022269118
20
-42.18734336602143
10
-132.55916024172274
20
-42.216542959923672
10
-131.87144794497684
20
-42.243402735444405
10
-131.17815502554495
20
-42.267468354117419
10
-130.48476648042146
20
-42.288283103440293
10
-129.79129407577454
20
-42.305791654742173
10
-129.09775005913338
20
-42.319936244700003
10
-128.40414718630205
20
-42.330656526264562
10
-127.71049875033414
20
-42.337889403788807
10
-127.01681861282927
20
-42.341568850270065
10
-126.3231212378524
20
-42.34162570428326
10
-125.62942172882535
20
-42.337987443786716
10
-124.93573586879579
20
-42.33057793350774
10
-124.24208016455836
20
-42.319317142048511
10
-123.54847189518195
20
-42.30412082416882
10
-122.8549291655975
20
-42.284900162875203
10
-122.16147096601767
20
-42.261561364940768
10
-121.46811723810571
20
-42.234005202249818
10
-120.77488894898686
20
-42.202126489850656
10
-120.08180817441533
20
-42.165813489730724
10
-119.38889819267823
20
-42.124947227003055
10
-118.69618359115643
20
-42.079400702280864
10
-118.00369038788547
20
-42.029037980343702
10
-117.3114461709949
20
-41.973713130531713
10
-116.61948025958827
20
-41.913268988326031
10
-115.92782389050507
20
-41.847535699851747
10
-115.23651043654682
20
-41.776329000973192
10
-114.54557566324509
20
-41.699448169400519
10
-113.85505803323041
20
-41.61667357059784
10
-113.16499906991615
20
-41.527763694563134
10
-112.47544379581078
20
-41.432451548235996
10
-111.78644126572239
20
-41.330440223673001
10
-111.09804522202396
20
-41.221397399619192
10
-110.41031490893508
20
-41.104948445098657
10
-109.72331609689866
20
-40.980667664657005
10
-109.03712238891055
20
-40.848067034246455
10
-108.35181691190839
20
-40.706581488764328
10
-107.66749454448197
20
-40.555549376461585
10
-106.98426490845389
20
-40.394185986012573
10
-106.30225647658756
20
-40.221546887002866
10
-105.62162236004255
20
-40.036475840899797
10
-104.94254871279232
20
-39.837528516951856
10
-104.26526738407111
20
-39.622856674352946
10
-103.59007581727161
20
-39.390024456862534
10
-102.91737009093283
20
-39.135700735733025
10
-102.24770372121392
20
-38.855106811457901
10
-101.58190241136369
20
-38.540929098051969
10
-100.92131890850999
20
-38.180882304686222
10
-100.26852324505241
20
-37.751047319507371
10
-99.629983954497504
20
-37.189726220365472
10
-99.071447944976839
20
-35.847578832373117
10
-99.879578602122848
20
-34.640674499936317
10
-100.60770597823462
20
-34.211749234127758
10
-101.3215769814437
20
-33.911462860060013
10
-102.02766014525666
20
-33.678117455583163
10
-102.7285255020731
20
-33.487793908843891
10
-103.42552579902083
20
-33.328206929013213
10
-104.11948673934874
20
-33.192042930105927
10
-104.81096183921591
20
-33.074523212615517
10
-105.50034717716136
20
-32.972316647794386
10
-106.18794019657778
20
-32.882987379401996
10
-106.87397274669947
20
-32.804687166632263
10
-107.5586309814998
20
-32.735971678733669
10
-108.24206801213839
20
-32.675684677173543
10
-108.92441231137863
20
-32.622881731537461
10
-109.60577350104315
20
-32.57677813049979
10
-110.2862464597217
20
-32.536712222311451
10
-110.96591431435193
20
-32.502118941869796
10
-111.64485066792972
20
-32.472510265127042
10
-112.32312129089797
20
-32.447460496628793
10
-113.00078542747626
20
-32.426595005399136
10
-113.67789682003753
20
-32.409581470183099
10
-114.35450452338995
20
-32.396122983037294
10
-115.03065356004193
20
-32.385952550901273
10
-115.70638545340684
20
-32.378828663773042
10
-116.3817386661153
20
-32.374531687116715
10
-117.05674896369877
20
-32.372860898642429
10
-117.73144971895877
20
-32.373632034214531
10
-118.40587216873487
20
-32.376675239958089
10
-119.08004563213061
20
-32.38183335135426
10
-119.75399769727547
20
-32.388960437743179
10
-120.42775438220502
20
-32.397920563904407
10
-121.10134027430016
20
-32.408586730451134
10
-121.774778651848
20
-32.420839962496416
10
-122.44809159060266
20
-32.434568522027689
10
-123.12130005768951
20
-32.449667224093261
10
-123.79442399477172
20
-32.466036840577424
10
-124.467482392062
20
-32.483583578253281
10
-125.14049335449121
20
-32.502218620127394
10
-125.81347416112834
20
-32.521857720959524
10
-126.48644131876793
20
-32.542420849351863
10
-127.15941061045774
20
-32.563831870031727
10
-127.83239713961953
20
-32.586018260957424
10
-128.5054153703183
20
-32.608910860703901
10
-129.17847916415363
20
-32.632443642268456
10
-129.85160181417913
20
-32.656553510004066
10
-130.5247960761989
20
-32.681180116861491
10
-131.19807419774205
20
-32.706265699517715
10
-131.87144794497684
20
-32.731754929301843
10
-132.55040231489761
20
-32.757981988773174
10
-133.22940900059584
20
-32.78528343452728
10
-133.90847260939825
20
-32.81361080185809
10
-134.5875975765311
20
-32.842917623630655
10
-135.26678817393073
20
-32.873159335797666
10
-135.94604851857366
20
-32.904293190911488
10
-136.62538258037276
20
-32.936278178819727
10
-137.30479418968082
20
-32.969074953828404
10
-137.98428704443788
20
-33.002645767699008
10
-138.66386471699548
20
-33.036954407918124
10
-139.34353066064619
20
-33.071966140740855
10
-140.02328821588515
20
-33.10764765856387
10
-140.70314061642628
20
-33.143967031232073
10
-141.38309099499489
20
-33.180893660924724
10
-142.06314238891417
20
-33.218398240304047
10
-142.74329774550409
20
-33.256452713641707
10
-143.42355992730677
20
-33.295030240667572
10
-144.10393171715248
20
-33.334105162910511
10
-144.78441582307906
20
-33.373652972323583
10
-145.46501488311588
20
-33.413650282006159
10
-146.14573146994235
20
-33.45407479885322
10
-146.82656809543076
20
-33.494905297978136
10
-147.50752721508198
20
-33.536121598769427
10
-148.18861123236135
20
-33.577704542454704
10
-148.86982250294247
20
-33.619635971056475
10
-149.5511633388646
20
-33.661898707634577
10
-150.2326360126105
20
-33.704476537719479
10
-150.91424276110956
20
-33.747354191848714
10
-151.59598578967132
20
-33.790517329126288
10
-152.27786727585408
20
-33.833952521731746
10
-152.95988937327283
20
-33.877647240311482
10
-153.64205421535021
20
-33.921589840190556
10
-154.32436391901436
20
-33.965769548348305
10
-155.00682058834661
20
-34.010176451105373
10
-155.68942631818254
20
-34.054801482474168
10
-156.37218319766868
20
-34.099636413128394
10
-157.0550933137778
20
-34.144673839950698
10
-157.73815875478542
20
-34.189907176120627
10
-158.421381613709
20
-34.235330641707989
10
-159.10476399171284
20
-34.280939254739238
10
-159.78830800148006
20
-34.326728822706983
10
-160.47201577055318
20
-34.372695934494693
10
-161.15588944464611
20
-34.418837952691071
10
-161.83993119092753
20
-34.465153006269887
10
-162.52414320127849
20
-34.511639983613229
10
-163.20852769552465
20
-34.558298525857374
10
-163.89308692464488
20
-34.605129020542044
10
-164.57782317395731
20
-34.652132595545048
10
-165.26273876628386
20
-34.699311113285695
10
-165.94783606509424
20
-34.746667165181158
10
-166.63311747763026
20
-34.794204066341422
10
-167.31858545801188
20
-34.841925850489048
10
-168.00424251032501
20
-34.889837265091003
10
-168.69009119169272
20
-34.9379437666908
10
-169.37613411532971
20
-34.986251516429533
10
-170.06237395358147
20
-35.034767375745517
10
-170.74881344094834
20
-35.083498902242773
10
-171.435455377095
20
-35.132454345718926
10
-172.12230262984662
20
-35.181642644344123
10
-172.80935813817115
20
-35.231073420982732
10
-173.49662491514943
20
-35.280756979650214
10
-174.184106050932
20
-35.330704302098027
10
-174.87180471568536
20
-35.380927044519808
10
-175.55972416252558
20
-35.431437534372414
10
-176.24786773044121
20
-35.482248767306032
10
-176.93623884720557
20
-35.533374404197431
10
-177.62484103227877
20
-35.584828768281326
10
-178.31367789969889
20
-35.636626842374667
10
-179.00275316096446
20
-35.688784266189145
10
-179.69207062790639
20
-35.741317333727537
0
ENDSEC
0
SECTION
2
OBJECTS
0
DICTIONARY
5
C
100
AcDbDictionary
3
ACAD_GROUP
350
D
3
ACAD_MLINESTYLE
350
17
0
DICTIONARY
5
D
100
AcDbDictionary
0
DICTIONARY
5
1A
330
C
100
AcDbDictionary
0
DICTIONARY
5
17
100
AcDbDictionary
0
ENDSEC
0
EOF
