0
SECTION
2
HEADER
9
$INSUNITS
70
4
9
$ACADVER
1
AC1014
9
$HANDSEED
5
FFFF
0
ENDSEC
0
SECTION
2
TABLES
0
TABLE
2
VPORT
5
8
100
AcDbSymbolTable
0
ENDTAB
0
TABLE
2
LTYPE
5
5
100
AcDbSymbolTable
0
LTYPE
5
14
100
AcDbSymbolTableRecord
100
AcDbLinetypeTableRecord
2
BYBLOCK
70
0
0
LTYPE
5
15
100
AcDbSymbolTableRecord
100
AcDbLinetypeTableRecord
2
BYLAYER
70
0
0
LTYPE
5
16
100
AcDbSymbolTableRecord
100
AcDbLinetypeTableRecord
2
DASHED
70
0
3
Dashed __ __ __ __ __ __ __ __ __ __ __ __ __ _
72
65
73
2
40
0.75
49
0.5
74
0
49
-0.25
74
0
0
ENDTAB
0
TABLE
2
LAYER
5
2
100
AcDbSymbolTable
70
2
0
LAYER
5
50
100
AcDbSymbolTableRecord
100
AcDbLayerTableRecord
2
0
70
0
62
7
6
CONTINUOUS
0
ENDTAB
0
TABLE
2
STYLE
5
3
100
AcDbSymbolTable
70
1
0
STYLE
5
11
100
AcDbSymbolTableRecord
100
AcDbTextStyleTableRecord
2
STANDARD
70
0
0
ENDTAB
0
TABLE
2
VIEW
5
6
100
AcDbSymbolTable
70
0
0
ENDTAB
0
TABLE
2
UCS
5
7
100
AcDbSymbolTable
70
0
0
ENDTAB
0
TABLE
2
APPID
5
9
100
AcDbSymbolTable
70
2
0
APPID
5
12
100
AcDbSymbolTableRecord
100
AcDbRegAppTableRecord
2
ACAD
70
0
0
ENDTAB
0
TABLE
2
DIMSTYLE
5
A
100
AcDbSymbolTable
70
1
0
ENDTAB
0
TABLE
2
BLOCK_RECORD
5
1
100
AcDbSymbolTable
70
1
0
BLOCK_RECORD
5
1F
100
AcDbSymbolTableRecord
100
AcDbBlockTableRecord
2
*MODEL_SPACE
0
BLOCK_RECORD
5
1B
100
AcDbSymbolTableRecord
100
AcDbBlockTableRecord
2
*PAPER_SPACE
0
ENDTAB
0
ENDSEC
0
SECTION
2
BLOCKS
0
BLOCK
5
20
100
AcDbEntity
100
AcDbBlockBegin
2
*MODEL_SPACE
0
ENDBLK
5
21
100
AcDbEntity
100
AcDbBlockEnd
0
BLOCK
5
1C
100
AcDbEntity
100
AcDbBlockBegin
2
*PAPER_SPACE
0
ENDBLK
5
1D
100
AcDbEntity
100
AcDbBlockEnd
0
ENDSEC
0
SECTION
2
ENTITIES
0
POINT
5
100
100
AcDbEntity
8
0
100
AcDbPoint
10
0
20
0
30
0
0
POINT
5
101
100
AcDbEntity
8
0
100
AcDbPoint
10
0
20
0
30
0
0
POINT
5
102
100
AcDbEntity
8
0
100
AcDbPoint
10
261.49672749566281
20
13.352330667837888
30
0
0
POINT
5
103
100
AcDbEntity
8
0
100
AcDbPoint
10
257.51736469008279
20
12.97587184572116
30
0
0
SPLINE
5
104
100
AcDbEntity
8
0
100
AcDbSpline
70
4
71
5
72
26
73
20
74
0
42
0.000000001
43
0.0000000001
44
0.0000000001
40
0
40
0
40
0
40
0
40
0
40
0
40
0.066666666666666666
40
0.13333333333333333
40
0.20000000000000001
40
0.26666666666666666
40
0.33333333333333331
40
0.39999999999999997
40
0.46666666666666662
40
0.53333333333333333
40
0.59999999999999998
40
0.66666666666666663
40
0.73333333333333328
40
0.79999999999999993
40
0.86666666666666659
40
0.93333333333333324
40
1
40
1
40
1
40
1
40
1
40
1
41
1
41
1
41
1
41
1
41
1
41
1
41
1
41
1
41
1
41
1
41
1
41
1
41
1
41
1
41
1
41
1
41
1
41
1
41
1
41
1
10
120.18234802374202
20
36.669917378597212
30
0
10
120.70297383245543
20
36.607405958068313
30
0
10
121.7573601085705
20
36.476055960114785
30
0
10
123.37834447579627
20
36.260048697791674
30
0
10
125.61903134206995
20
35.933805332877732
30
0
10
128.55441299506009
20
35.461832032372008
30
0
10
131.62476442838289
20
34.927427699297006
30
0
10
134.82633815652716
20
34.336251314985972
30
0
10
138.14701885182953
20
33.700860879049074
30
0
10
141.56695228638779
20
33.040018867667015
30
0
10
145.06270011672274
20
32.375291999668377
30
0
10
148.61000720723891
20
31.728519367143232
30
0
10
152.1866062573194
20
31.119227131888184
30
0
10
155.77530652184865
20
30.561405467708965
30
0
10
159.36534325769958
20
30.062268086272901
30
0
10
162.95042601424399
20
29.6248538362833
30
0
10
165.81220233182069
20
29.324547876144283
30
0
10
167.95461591900397
20
29.126866907239371
30
0
10
169.38116351691005
20
29.007233648410327
30
0
10
170.09400523179013
20
28.950455610751327
30
0
0
SPLINE
5
105
100
AcDbEntity
8
0
100
AcDbSpline
70
4
71
5
72
31
73
25
74
0
42
0.000000001
43
0.0000000001
44
0.0000000001
40
0
40
0
40
0
40
0
40
0
40
0
40
0.050000000000000003
40
0.10000000000000001
40
0.15000000000000002
40
0.20000000000000001
40
0.25
40
0.29999999999999999
40
0.34999999999999998
40
0.39999999999999997
40
0.44999999999999996
40
0.49999999999999994
40
0.54999999999999993
40
0.59999999999999998
40
0.65000000000000002
40
0.70000000000000007
40
0.75000000000000011
40
0.80000000000000016
40
0.8500000000000002
40
0.90000000000000024
40
0.95000000000000029
40
1
40
1
40
1
40
1
40
1
40
1
41
1
41
1
41
1
41
1
41
1
41
1
41
1
41
1
41
1
41
1
41
1
41
1
41
1
41
1
41
1
41
1
41
1
41
1
41
1
41
1
41
1
41
1
41
1
41
1
41
1
10
90.174588087588759
20
1.8109450036893326
30
0
10
91.228954136438887
20
1.924098280444178
30
0
10
93.343702920235373
20
2.1519563088709717
30
0
10
96.533875642620401
20
2.4983980320960013
30
0
10
100.82369003861702
20
2.9696654791063488
30
0
10
106.2486042302809
20
3.5739509228799378
30
0
10
111.74142671150214
20
4.1918740687141893
30
0
10
117.31140109624094
20
4.8200547406640686
30
0
10
122.97323435586054
20
5.4523365632147343
30
0
10
128.74575971472211
20
6.0803520659266077
30
0
10
134.6494439525201
20
6.6946796393639207
30
0
10
140.70425550233477
20
7.2857678607240972
30
0
10
146.92711086328021
20
7.8450102293507022
30
0
10
153.32969101091626
20
8.3656491681985461
30
0
10
159.91962920813467
20
8.8424579186952101
30
0
10
166.70118155447733
20
9.2715858322611009
30
0
10
173.67582937910583
20
9.6504132955781845
30
0
10
180.84266124706218
20
9.9774708519774187
30
0
10
188.19855373436718
20
10.252421397541172
30
0
10
195.73921880155046
20
10.475675160332031
30
0
10
203.46014336638774
20
10.648032876388536
30
0
10
209.77791780013692
20
10.745912300474409
30
0
10
214.59433322911491
20
10.797136738201921
30
0
10
217.83983978409992
20
10.821466464068044
30
0
10
219.47123381364867
20
10.831176346873303
30
0
0
LINE
5
106
100
AcDbEntity
8
0
100
AcDbLine
10
280
20
13.457101343312381
30
0
11
262.46656974019288
21
13.457101343312381
31
0
0
SPLINE
5
107
100
AcDbEntity
8
0
100
AcDbSpline
70
4
71
5
72
26
73
20
74
0
42
0.000000001
43
0.0000000001
44
0.0000000001
40
0
40
0
40
0
40
0
40
0
40
0
40
0.066666666666666666
40
0.13333333333333333
40
0.20000000000000001
40
0.26666666666666666
40
0.33333333333333331
40
0.39999999999999997
40
0.46666666666666662
40
0.53333333333333333
40
0.59999999999999998
40
0.66666666666666663
40
0.73333333333333328
40
0.79999999999999993
40
0.86666666666666659
40
0.93333333333333324
40
1
40
1
40
1
40
1
40
1
40
1
41
1
41
1
41
1
41
1
41
1
41
1
41
1
41
1
41
1
41
1
41
1
41
1
41
1
41
1
41
1
41
1
41
1
41
1
41
1
41
1
10
170.09400523179013
20
28.950455610751327
30
0
10
170.89035730341109
20
28.867410951251088
30
0
10
172.51525649559528
20
28.701454292071524
30
0
10
175.049189206828
20
28.452917307706656
30
0
10
178.62234886874018
20
28.122336226246823
30
0
10
183.41978212121145
20
27.710677713360553
30
0
10
188.55352758674709
20
27.301221614294398
30
0
10
194.02191173123313
20
26.895207682239985
30
0
10
199.81042551301397
20
26.494656425792463
30
0
10
205.89696339258722
20
26.102029502118587
30
0
10
212.25543342789081
20
25.719914304173365
30
0
10
218.85879970911634
20
25.350682433082508
30
0
10
225.68132524712564
20
24.996117997861944
30
0
10
232.70027887715804
20
24.657010985070755
30
0
10
239.89682196419244
20
24.333495982760841
30
0
10
247.25650575874866
20
24.025326827089685
30
0
10
253.26683482990575
20
23.790752532417528
30
0
10
257.84104324522036
20
23.621390819374692
30
0
10
260.91984011318181
20
23.511381429462933
30
0
10
262.46656974019288
20
23.457101343312381
30
0
0
SPLINE
5
108
100
AcDbEntity
8
0
100
AcDbSpline
70
4
71
5
72
16
73
10
74
0
42
0.000000001
43
0.0000000001
44
0.0000000001
40
0
40
0
40
0
40
0
40
0
40
0
40
0.20000000000000001
40
0.40000000000000002
40
0.60000000000000009
40
0.80000000000000004
40
1
40
1
40
1
40
1
40
1
40
1
41
1
41
1
41
1
41
1
41
1
41
1
41
1
41
1
41
1
41
1
10
0
20
18.976750070311191
30
0
10
0
20
18.795552784737211
30
0
10
0
20
18.433158213589756
30
0
10
0
20
17.889566356870176
30
0
10
0
20
17.164777214580187
30
0
10
0
20
16.258790786720848
30
0
10
0
20
15.534001644434841
30
0
10
0
20
14.990409787720861
30
0
10
0
20
14.628015216578408
30
0
10
0
20
14.44681793100723
30
0
0
SPLINE
5
109
100
AcDbEntity
8
0
100
AcDbSpline
70
4
71
5
72
36
73
30
74
0
42
0.000000001
43
0.0000000001
44
0.0000000001
40
0
40
0
40
0
40
0
40
0
40
0
40
0.040000000000000001
40
0.080000000000000002
40
0.12
40
0.16
40
0.20000000000000001
40
0.24000000000000002
40
0.28000000000000003
40
0.32000000000000001
40
0.35999999999999999
40
0.39999999999999997
40
0.43999999999999995
40
0.47999999999999993
40
0.51999999999999991
40
0.55999999999999994
40
0.59999999999999998
40
0.64000000000000001
40
0.68000000000000005
40
0.72000000000000008
40
0.76000000000000012
40
0.80000000000000016
40
0.84000000000000019
40
0.88000000000000023
40
0.92000000000000026
40
0.9600000000000003
40
1
40
1
40
1
40
1
40
1
40
1
41
1
41
1
41
1
41
1
41
1
41
1
41
1
41
1
41
1
41
1
41
1
41
1
41
1
41
1
41
1
41
1
41
1
41
1
41
1
41
1
41
1
41
1
41
1
41
1
41
1
41
1
41
1
41
1
41
1
41
1
10
0
20
18.976750070311191
30
0
10
0.42490805756358824
20
19.202738183421143
30
0
10
1.2788187644963867
20
19.652553899324179
30
0
10
2.5719688270945724
20
20.320796323747047
30
0
10
4.3207990416677227
20
21.198786815313092
30
0
10
6.548166482091009
20
22.27381241025958
30
0
10
8.8170099661321508
20
23.324263959168633
30
0
10
11.12718256297423
20
24.346278811815129
30
0
10
13.477801926015832
20
25.333377742941202
30
0
10
15.868087025584906
20
26.277637923373497
30
0
10
18.298852754529015
20
27.171892249084948
30
0
10
20.773687844884982
20
28.011511821533613
30
0
10
23.300509382969956
20
28.796658513203951
30
0
10
25.892281307305968
20
29.5336576248502
30
0
10
28.563738039230529
20
30.232068011019276
30
0
10
31.328479582915595
20
30.902250650941049
30
0
10
34.196151616783574
20
31.552967764687992
30
0
10
37.168880521743262
20
32.188522654149246
30
0
10
40.240076641461648
20
32.807607491286333
30
0
10
43.397671627844588
20
33.405344003226602
30
0
10
46.62624931461216
20
33.974565550318104
30
0
10
49.909581317842402
20
34.507413784615267
30
0
10
53.23283595050686
20
34.996730682799665
30
0
10
56.585177724192334
20
35.437740587238508
30
0
10
59.959377087045382
20
35.827715907709489
30
0
10
63.350996741006526
20
36.165373675510075
30
0
10
66.076397151765519
20
36.393398529306154
30
0
10
68.126878128015349
20
36.540813238737393
30
0
10
69.496716262343597
20
36.62862653436391
30
0
10
70.182348023742037
20
36.669917378597212
30
0
0
LINE
5
110
100
AcDbEntity
8
0
100
AcDbLine
10
70.182348023742037
20
36.669917378597212
30
0
11
120.18234802374202
21
36.669917378597212
31
0
0
SPLINE
5
111
100
AcDbEntity
8
0
100
AcDbSpline
70
4
71
5
72
31
73
25
74
0
42
0.000000001
43
0.0000000001
44
0.0000000001
40
0
40
0
40
0
40
0
40
0
40
0
40
0.050000000000000003
40
0.10000000000000001
40
0.15000000000000002
40
0.20000000000000001
40
0.25
40
0.29999999999999999
40
0.34999999999999998
40
0.39999999999999997
40
0.44999999999999996
40
0.49999999999999994
40
0.54999999999999993
40
0.59999999999999998
40
0.65000000000000002
40
0.70000000000000007
40
0.75000000000000011
40
0.80000000000000016
40
0.8500000000000002
40
0.90000000000000024
40
0.95000000000000029
40
1
40
1
40
1
40
1
40
1
40
1
41
1
41
1
41
1
41
1
41
1
41
1
41
1
41
1
41
1
41
1
41
1
41
1
41
1
41
1
41
1
41
1
41
1
41
1
41
1
41
1
41
1
41
1
41
1
41
1
41
1
10
0
20
10.976750070311191
30
0
10
0.16683265712229722
20
10.806650913889662
30
0
10
0.52107612921932822
20
10.469282686435514
30
0
10
1.1141729284661672
20
9.9717206474111801
30
0
10
2.0289607509130727
20
9.3253540743294039
30
0
10
3.3782954810873522
20
8.546457861600981
30
0
10
4.9262867846393457
20
7.7978417920759311
30
0
10
6.6535144077641224
20
7.0814079950301378
30
0
10
8.5260187792697213
20
6.3997529765130494
30
0
10
10.503522277298758
20
5.7559199955223237
30
0
10
12.545758508730829
20
5.1531640509294228
30
0
10
14.61891942395107
20
4.5946939779474381
30
0
10
16.703167726256719
20
4.0833379670914702
30
0
10
18.796173232065271
20
3.6213266124541521
30
0
10
20.906969222682633
20
3.2104023969197195
30
0
10
23.051925159650786
20
2.8518098376080907
30
0
10
25.250013460878911
20
2.5462703674621263
30
0
10
27.518389231871275
20
2.2938947808624381
30
0
10
29.867844381112537
20
2.0940590940868127
30
0
10
32.304381805781567
20
1.9457318400436203
30
0
10
34.830558304236824
20
1.8477496287052917
30
0
10
36.923519841363735
20
1.8087922087171102
30
0
10
38.533472172613685
20
1.8014110499791922
30
0
10
39.624581485688637
20
1.8061560534329457
30
0
10
40.174588087588759
20
1.8109450036893326
30
0
0
LINE
5
112
100
AcDbEntity
8
0
100
AcDbLine
10
40.174588087588759
20
1.8109450036893326
30
0
11
90.174588087588759
21
1.8109450036893326
31
0
0
LINE
5
113
100
AcDbEntity
8
0
100
AcDbLine
10
0
20
18.976750070311191
30
0
11
0
21
10.976750070311191
31
0
0
SPLINE
5
114
100
AcDbEntity
8
0
100
AcDbSpline
70
0
71
3
72
23
73
19
74
0
42
0.000000001
43
0.0000000001
44
0.0000000001
40
0.074841796597054644
40
0.074841796597054644
40
0.074841796597054644
40
0.074841796597054644
40
0.19000538908606626
40
0.19000538908606626
40
0.19000538908606626
40
0.40521211452952344
40
0.40521211452952344
40
0.40521211452952344
40
0.59819320246516039
40
0.59819320246516039
40
0.59819320246516039
40
0.84866421517290425
40
0.84866421517290425
40
0.84866421517290425
40
1
40
1
40
1
40
1.0002770243066577
40
1.0002770243066577
40
1.0002770243066577
40
1.0002770243066577
10
3.5000000000000013
20
12.593295719435078
30
0
10
4.1549505603099028
20
12.130212548445625
30
0
10
5.0327570169940596
20
11.630318425141763
30
0
10
6.115173206782397
20
11.130399284850609
30
0
10
8.1378892295875929
20
10.196198129404433
30
0
10
10.87251153102174
20
9.2683369760885288
30
0
10
13.710652029757671
20
8.4746570471101652
30
0
10
16.255681419669344
20
7.7629450137092118
30
0
10
18.843883651319643
20
7.1570237108346921
30
0
10
21.464134048207303
20
6.6810643955496225
30
0
10
24.864968697223311
20
6.0633146824435604
30
0
10
28.425461515112946
20
5.6587871297259698
30
0
10
32.436190552272912
20
5.4572177507541557
30
0
10
34.859492234993574
20
5.3354285671115615
30
0
10
37.43064596616933
20
5.2871859568348487
30
0
10
40.144114470525494
20
5.3108123381268939
30
0
10
40.149193310443756
20
5.3108565599810387
30
0
10
40.15427215036204
20
5.3109007818351852
30
0
10
40.159350990280302
20
5.3109450036893335
30
0
0
LINE
5
115
100
AcDbEntity
8
0
100
AcDbLine
10
3.5000000000000004
20
16.85732569081258
30
0
11
3.5000000000000004
21
12.593295719435078
31
0
0
SPLINE
5
116
100
AcDbEntity
8
0
100
AcDbSpline
70
0
71
3
72
20
73
16
74
0
42
0.000000001
43
0.0000000001
44
0.0000000001
40
-0.99875888397536838
40
-0.99875888397536838
40
-0.99875888397536838
40
-0.99875888397536838
40
-0.76686703798171074
40
-0.76686703798171074
40
-0.76686703798171074
40
-0.56746501925660098
40
-0.56746501925660098
40
-0.56746501925660098
40
-0.36779443185378147
40
-0.36779443185378147
40
-0.36779443185378147
40
-0.16314962852979109
40
-0.16314962852979109
40
-0.16314962852979109
40
-0.035467735591350184
40
-0.035467735591350184
40
-0.035467735591350184
40
-0.035467735591350184
10
70.288061327943979
20
33.169917378597205
30
0
10
63.768355445296308
20
32.774142535308812
30
0
10
57.308918698218861
20
32.080519968971444
30
0
10
51.013182067229721
20
31.123329529562071
30
0
10
45.599526454624893
20
30.300248816634273
30
0
10
40.327427895255553
20
29.297611463801605
30
0
10
35.514039561260532
20
28.249096872416409
30
0
10
30.69416821697089
20
27.199170067758907
30
0
10
26.379342659709152
20
26.111209197695896
30
0
10
22.340020304499358
20
24.821190531503451
30
0
10
18.200069900705266
20
23.499034776561739
30
0
10
14.261638797729752
20
21.92779489219598
30
0
10
10.446090197813028
20
20.2078125550238
30
0
10
8.0654948446796499
20
19.134681954765441
30
0
10
5.7478961640487061
20
18.012804439952006
30
0
10
3.5000000000000053
20
16.85732569081258
30
0
0
LINE
5
117
100
AcDbEntity
8
0
100
AcDbLine
10
119.97170646797983
20
33.169917378597241
30
0
11
70.288061327943979
21
33.169917378597212
31
0
0
LINE
5
118
100
AcDbEntity
8
0
100
AcDbLine
10
40.159350990280302
20
5.3109450036893344
30
0
11
89.987265240795509
21
5.3109450036893326
31
0
0
SPLINE
5
119
100
AcDbEntity
8
0
100
AcDbSpline
70
0
71
3
72
17
73
13
74
0
42
0.000000001
43
0.0000000001
44
0.0000000001
40
0.0017671243553502342
40
0.0017671243553502342
40
0.0017671243553502342
40
0.0017671243553502342
40
0.26164235328394392
40
0.26164235328394392
40
0.26164235328394392
40
0.53952927671001905
40
0.53952927671001905
40
0.53952927671001905
40
0.86953391410590197
40
0.86953391410590197
40
0.86953391410590197
40
0.99976274393409237
40
0.99976274393409237
40
0.99976274393409237
40
0.99976274393409237
10
89.987265240795509
20
5.31094500368933
30
0
10
99.113710905269286
20
6.2909379746377594
30
0
10
108.47673488628612
20
7.353071404183595
30
0
10
118.25615024065328
20
8.4460954567549145
30
0
10
128.71336717869983
20
9.6148759228731482
30
0
10
139.72549697605973
20
10.794218301616137
30
0
10
151.74593116086601
20
11.73864043369246
30
0
10
166.02079870623771
20
12.860189009645529
30
0
10
181.70199333511138
20
13.642440918222141
30
0
10
198.69814800921438
20
14.035447875356033
30
0
10
205.40529416404894
20
14.190539138756936
30
0
10
212.31180998390585
20
14.288418592545348
30
0
10
219.411596621695
20
14.330882820103747
30
0
0
SPLINE
5
120
100
AcDbEntity
8
0
100
AcDbSpline
70
0
71
3
72
14
73
10
74
0
42
0.000000001
43
0.0000000001
44
0.0000000001
40
-0.99921420572209918
40
-0.99921420572209918
40
-0.99921420572209918
40
-0.99921420572209918
40
-0.65999541759992975
40
-0.65999541759992975
40
-0.65999541759992975
40
-0.31835098541726398
40
-0.31835098541726398
40
-0.31835098541726398
40
-0.005409480676441019
40
-0.005409480676441019
40
-0.005409480676441019
40
-0.005409480676441019
10
169.77347040585968
20
25.465308069710385
30
0
10
163.62880036296173
20
25.95590427461017
30
0
10
157.41895072559021
20
26.726886564143047
30
0
10
151.26447939131543
20
27.737065301378987
30
0
10
145.06599941907544
20
28.754467500698443
30
0
10
138.9663165795593
20
30.000619351298532
30
0
10
133.48587619098504
20
31.020895443581505
30
0
10
128.46586971558074
20
31.95545402406324
30
0
10
123.96465782740503
20
32.684628743876523
30
0
10
119.97170646797984
20
33.169917378597248
30
0
0
ARC
5
121
100
AcDbEntity
8
0
100
AcDbCircle
10
121.25322683213807
20
79.195207096666564
30
0
40
156.47708483135966
210
0
220
0
230
1
100
AcDbArc
50
339.13261308212287
51
352.38411105892226
0
ARC
5
122
100
AcDbEntity
8
0
100
AcDbCircle
10
282.06949465936316
20
57.69234342682541
30
0
40
5.770396332082707
210
0
220
0
230
1
100
AcDbArc
50
92.533078917097754
51
172.3841110589166
0
LINE
5
123
100
AcDbEntity
8
0
100
AcDbLine
10
262.46656974019288
20
23.457101343312381
30
0
11
267.46656974019294
21
23.457101343312381
31
0
0
LINE
5
124
100
AcDbEntity
8
0
100
AcDbLine
10
280
20
13.457101343312381
30
0
11
284.15000000000003
21
13.457101343312381
31
0
0
LINE
5
125
100
AcDbEntity
8
0
100
AcDbLine
10
281.81446526181389
20
63.457101343312381
30
0
11
284.15000000000003
21
63.457147267454424
31
0
0
LINE
5
126
100
AcDbEntity
8
0
100
AcDbLine
10
256.35000000000002
20
17.257101343312382
30
0
11
284.15000000000003
21
17.257101343312382
31
0
0
LINE
5
127
100
AcDbEntity
8
0
100
AcDbLine
10
256.35000000000002
20
20.457101343312381
30
0
11
256.35000000000002
21
17.257101343312382
31
0
0
LINE
5
128
100
AcDbEntity
8
0
100
AcDbLine
10
284.15000000000003
20
20.457101343312381
30
0
11
256.35000000000002
21
20.457101343312381
31
0
0
LINE
5
129
100
AcDbEntity
8
0
100
AcDbLine
10
284.15000000000003
20
13.457101343312381
30
0
11
284.15000000000003
21
17.257101343312382
31
0
0
LINE
5
130
100
AcDbEntity
8
0
100
AcDbLine
10
284.15000000000003
20
20.457101343312381
30
0
11
284.15000000000003
21
63.457147267454424
31
0
0
SPLINE
5
131
100
AcDbEntity
8
0
100
AcDbSpline
70
4
71
5
72
41
73
35
74
0
42
0.000000001
43
0.0000000001
44
0.0000000001
40
0
40
0
40
0
40
0
40
0
40
0
40
0.033333333333333333
40
0.066666666666666666
40
0.10000000000000001
40
0.13333333333333333
40
0.16666666666666666
40
0.19999999999999998
40
0.23333333333333331
40
0.26666666666666666
40
0.29999999999999999
40
0.33333333333333331
40
0.36666666666666664
40
0.39999999999999997
40
0.43333333333333329
40
0.46666666666666662
40
0.49999999999999994
40
0.53333333333333333
40
0.56666666666666665
40
0.59999999999999998
40
0.6333333333333333
40
0.66666666666666663
40
0.69999999999999996
40
0.73333333333333328
40
0.76666666666666661
40
0.79999999999999993
40
0.83333333333333326
40
0.86666666666666659
40
0.89999999999999991
40
0.93333333333333324
40
0.96666666666666656
40
1
40
1
40
1
40
1
40
1
40
1
41
1
41
1
41
1
41
1
41
1
41
1
41
1
41
1
41
1
41
1
41
1
41
1
41
1
41
1
41
1
41
1
41
1
41
1
41
1
41
1
41
1
41
1
41
1
41
1
41
1
41
1
41
1
41
1
41
1
41
1
41
1
41
1
41
1
41
1
41
1
10
219.47123381364867
20
10.831176346873303
30
0
10
219.52350264885538
20
10.831871242518725
30
0
10
219.6431584437735
20
10.834044819957068
30
0
10
219.86799096305336
20
10.839656306856432
30
0
10
220.25867776330998
20
10.851851111889488
30
0
10
220.89374764850075
20
10.87475745882789
30
0
10
221.66032171657798
20
10.904702211825567
30
0
10
222.52482475594735
20
10.940289731483466
30
0
10
223.44194515689381
20
10.979639142212161
30
0
10
224.36595645646128
20
11.020870144850971
30
0
10
225.26104799471705
20
11.062547805512047
30
0
10
226.11080348464623
20
11.104087257094232
30
0
10
226.93151789486888
20
11.146331256587921
30
0
10
227.76473560411117
20
11.191193264598834
30
0
10
228.66205950903208
20
11.240954100363389
30
0
10
229.67197007944065
20
11.297645210360995
30
0
10
230.82715498493559
20
11.362460587969341
30
0
10
232.12819005323396
20
11.434987733397133
30
0
10
233.54129128899078
20
11.513127330822767
30
0
10
235.01182003505932
20
11.593782800789842
30
0
10
236.47347965563335
20
11.673339642487745
30
0
10
237.85903998850824
20
11.748219163789507
30
0
10
239.11061327767314
20
11.815412227723952
30
0
10
240.18962511466475
20
11.872995609448832
30
0
10
241.08840380234486
20
11.920736101802518
30
0
10
241.83733105882715
20
11.960456695717356
30
0
10
242.48927128846501
20
11.995186240892981
30
0
10
243.10671435096577
20
12.028453684687523
30
0
10
243.74884696252423
20
12.06358009940929
30
0
10
244.45648610658543
20
12.102851609325771
30
0
10
245.25298140329724
20
12.147574305037548
30
0
10
245.97040039488363
20
12.188222807278619
30
0
10
246.55509236865845
20
12.221531710240985
30
0
10
246.96557733165537
20
12.244990073296414
30
0
10
247.17599213995004
20
12.257032347885549
30
0
0
SPLINE
5
132
100
AcDbEntity
8
0
100
AcDbSpline
70
4
71
5
72
46
73
40
74
0
42
0.000000001
43
0.0000000001
44
0.0000000001
40
0
40
0
40
0
40
0
40
0
40
0
40
0.028571428571428571
40
0.057142857142857141
40
0.085714285714285715
40
0.11428571428571428
40
0.14285714285714285
40
0.17142857142857143
40
0.20000000000000001
40
0.22857142857142859
40
0.25714285714285717
40
0.28571428571428575
40
0.31428571428571433
40
0.34285714285714292
40
0.3714285714285715
40
0.40000000000000008
40
0.42857142857142866
40
0.45714285714285724
40
0.48571428571428582
40
0.51428571428571435
40
0.54285714285714293
40
0.57142857142857151
40
0.60000000000000009
40
0.62857142857142867
40
0.65714285714285725
40
0.68571428571428583
40
0.71428571428571441
40
0.74285714285714299
40
0.77142857142857157
40
0.80000000000000016
40
0.82857142857142874
40
0.85714285714285732
40
0.8857142857142859
40
0.91428571428571448
40
0.94285714285714306
40
0.97142857142857164
40
1
40
1
40
1
40
1
40
1
40
1
41
1
41
1
41
1
41
1
41
1
41
1
41
1
41
1
41
1
41
1
41
1
41
1
41
1
41
1
41
1
41
1
41
1
41
1
41
1
41
1
41
1
41
1
41
1
41
1
41
1
41
1
41
1
41
1
41
1
41
1
41
1
41
1
41
1
41
1
41
1
41
1
41
1
41
1
41
1
41
1
10
255.9835022950042
20
12.852919166727919
30
0
10
255.98891607682162
20
12.853229296824081
30
0
10
256.00220632989362
20
12.854065298711735
30
0
10
256.02952888868066
20
12.85596644308399
30
0
10
256.08076069783192
20
12.859798032351454
30
0
10
256.16878614002746
20
12.86668500512598
30
0
10
256.27868903273259
20
12.87547422030185
30
0
10
256.4058082675657
20
12.885734379530573
30
0
10
256.54379762717866
20
12.896881336729965
30
0
10
256.6866361018574
20
12.908369072905455
30
0
10
256.83009333296621
20
12.919828898442919
30
0
10
256.97385994558073
20
12.931272581074031
30
0
10
257.12193635388627
20
12.943127380117765
30
0
10
257.28021847893012
20
12.956000378479464
30
0
10
257.4546378102167
20
12.970496131401442
30
0
10
257.64926794531095
20
12.987031602758636
30
0
10
257.86396575651673
20
13.005604702321547
30
0
10
258.09480899120075
20
13.02584004114776
30
0
10
258.33577072636734
20
13.047157250629555
30
0
10
258.57996069596942
20
13.068896313729617
30
0
10
258.82108024055822
20
13.090464296324038
30
0
10
259.0546888793827
20
13.111462916822381
30
0
10
259.27981485744249
20
13.131851577716905
30
0
10
259.49824690631016
20
13.151870452444614
30
0
10
259.71337457518774
20
13.171916809563456
30
0
10
259.92918785161345
20
13.192437718025072
30
0
10
260.14923151789492
20
13.213818108703128
30
0
10
260.37554028263861
20
13.236266454350753
30
0
10
260.60768383429576
20
13.259712532853634
30
0
10
260.84346953872199
20
13.283887299384233
30
0
10
261.07952404307741
20
13.308389394922841
30
0
10
261.31192124245212
20
13.332756749788821
30
0
10
261.53676764158081
20
13.356533382547216
30
0
10
261.75084978490713
20
13.379343245171917
30
0
10
261.95212604958817
20
13.40094627812692
30
0
10
262.13940982099797
20
13.421202011381411
30
0
10
262.2776095329383
20
13.436276691615632
30
0
10
262.37465462156342
20
13.446939001791577
30
0
10
262.43641993961722
20
13.453761512626187
30
0
10
262.46656974019288
20
13.457101343312381
30
0
0
ARC
5
133
100
AcDbEntity
8
0
100
AcDbCircle
10
251.52058453507811
20
13.429430283825027
30
0
40
4.4999999999999973
210
0
220
0
230
1
100
AcDbArc
50
-7.3605969795196646
51
195.10168338187705
0
LINE
5
134
100
AcDbEntity
8
0
100
AcDbLine
10
219.41159662169497
20
14.330882820103747
30
0
11
219.41159662171464
21
21.822498741527923
31
0
0
SPLINE
5
135
100
AcDbEntity
8
0
100
AcDbSpline
70
0
71
3
72
11
73
7
74
0
42
0.000000001
43
0.0000000001
44
0.0000000001
40
-0.60679280749231335
40
-0.60679280749231335
40
-0.60679280749231335
40
-0.60679280749231335
40
-0.30427590029407009
40
-0.30427590029407009
40
-0.30427590029407009
40
-0.00070459898142278567
40
-0.00070459898142278567
40
-0.00070459898142278567
40
-0.00070459898142278567
10
219.41159662171464
20
21.822498741527923
30
0
10
209.20701532564698
20
22.369228774880963
30
0
10
199.74800240404906
20
22.96724419409162
30
0
10
191.42202942338042
20
23.582424157812337
30
0
10
183.06703705008078
20
24.19974827320727
30
0
10
175.86814487787379
20
24.830239762316655
30
0
10
169.77347040585965
20
25.465308069710378
30
0
0
ENDSEC
0
SECTION
2
OBJECTS
0
DICTIONARY
5
C
100
AcDbDictionary
3
ACAD_GROUP
350
D
3
ACAD_MLINESTYLE
350
17
0
DICTIONARY
5
D
100
AcDbDictionary
0
DICTIONARY
5
1A
330
C
100
AcDbDictionary
0
DICTIONARY
5
17
100
AcDbDictionary
0
ENDSEC
0
EOF
