0
SECTION
2
HEADER
9
$INSUNITS
70
4
9
$ACADVER
1
AC1014
9
$HANDSEED
5
FFFF
0
ENDSEC
0
SECTION
2
TABLES
0
TABLE
2
VPORT
5
8
100
AcDbSymbolTable
0
ENDTAB
0
TABLE
2
LTYPE
5
5
100
AcDbSymbolTable
0
LTYPE
5
14
100
AcDbSymbolTableRecord
100
AcDbLinetypeTableRecord
2
BYBLOCK
70
0
0
LTYPE
5
15
100
AcDbSymbolTableRecord
100
AcDbLinetypeTableRecord
2
BYLAYER
70
0
0
LTYPE
5
16
100
AcDbSymbolTableRecord
100
AcDbLinetypeTableRecord
2
DASHED
70
0
3
Dashed __ __ __ __ __ __ __ __ __ __ __ __ __ _
72
65
73
2
40
0.75
49
0.5
74
0
49
-0.25
74
0
0
ENDTAB
0
TABLE
2
LAYER
5
2
100
AcDbSymbolTable
70
2
0
LAYER
5
50
100
AcDbSymbolTableRecord
100
AcDbLayerTableRecord
2
0
70
0
62
7
6
CONTINUOUS
0
ENDTAB
0
TABLE
2
STYLE
5
3
100
AcDbSymbolTable
70
1
0
STYLE
5
11
100
AcDbSymbolTableRecord
100
AcDbTextStyleTableRecord
2
STANDARD
70
0
0
ENDTAB
0
TABLE
2
VIEW
5
6
100
AcDbSymbolTable
70
0
0
ENDTAB
0
TABLE
2
UCS
5
7
100
AcDbSymbolTable
70
0
0
ENDTAB
0
TABLE
2
APPID
5
9
100
AcDbSymbolTable
70
2
0
APPID
5
12
100
AcDbSymbolTableRecord
100
AcDbRegAppTableRecord
2
ACAD
70
0
0
ENDTAB
0
TABLE
2
DIMSTYLE
5
A
100
AcDbSymbolTable
70
1
0
ENDTAB
0
TABLE
2
BLOCK_RECORD
5
1
100
AcDbSymbolTable
70
1
0
BLOCK_RECORD
5
1F
100
AcDbSymbolTableRecord
100
AcDbBlockTableRecord
2
*MODEL_SPACE
0
BLOCK_RECORD
5
1B
100
AcDbSymbolTableRecord
100
AcDbBlockTableRecord
2
*PAPER_SPACE
0
ENDTAB
0
ENDSEC
0
SECTION
2
BLOCKS
0
BLOCK
5
20
100
AcDbEntity
100
AcDbBlockBegin
2
*MODEL_SPACE
0
ENDBLK
5
21
100
AcDbEntity
100
AcDbBlockEnd
0
BLOCK
5
1C
100
AcDbEntity
100
AcDbBlockBegin
2
*PAPER_SPACE
0
ENDBLK
5
1D
100
AcDbEntity
100
AcDbBlockEnd
0
ENDSEC
0
SECTION
2
ENTITIES
0
POINT
5
100
100
AcDbEntity
8
0
100
AcDbPoint
10
0
20
0
30
0
0
SPLINE
5
101
100
AcDbEntity
8
0
100
AcDbSpline
70
4
71
5
72
31
73
25
74
0
42
0.000000001
43
0.0000000001
44
0.0000000001
40
0
40
0
40
0
40
0
40
0
40
0
40
0.050000000000000003
40
0.10000000000000001
40
0.15000000000000002
40
0.20000000000000001
40
0.25
40
0.29999999999999999
40
0.34999999999999998
40
0.39999999999999997
40
0.44999999999999996
40
0.49999999999999994
40
0.54999999999999993
40
0.59999999999999998
40
0.65000000000000002
40
0.70000000000000007
40
0.75000000000000011
40
0.80000000000000016
40
0.8500000000000002
40
0.90000000000000024
40
0.95000000000000029
40
1
40
1
40
1
40
1
40
1
40
1
41
1
41
1
41
1
41
1
41
1
41
1
41
1
41
1
41
1
41
1
41
1
41
1
41
1
41
1
41
1
41
1
41
1
41
1
41
1
41
1
41
1
41
1
41
1
41
1
41
1
10
90.174588087588759
20
1.8109450036893326
30
0
10
91.228954136438887
20
1.924098280444178
30
0
10
93.343702920235373
20
2.1519563088709717
30
0
10
96.533875642620401
20
2.4983980320960013
30
0
10
100.82369003861702
20
2.9696654791063488
30
0
10
106.2486042302809
20
3.5739509228799378
30
0
10
111.74142671150214
20
4.1918740687141893
30
0
10
117.31140109624094
20
4.8200547406640686
30
0
10
122.97323435586054
20
5.4523365632147343
30
0
10
128.74575971472211
20
6.0803520659266077
30
0
10
134.6494439525201
20
6.6946796393639207
30
0
10
140.70425550233477
20
7.2857678607240972
30
0
10
146.92711086328021
20
7.8450102293507022
30
0
10
153.32969101091626
20
8.3656491681985461
30
0
10
159.91962920813467
20
8.8424579186952101
30
0
10
166.70118155447733
20
9.2715858322611009
30
0
10
173.67582937910583
20
9.6504132955781845
30
0
10
180.84266124706218
20
9.9774708519774187
30
0
10
188.19855373436718
20
10.252421397541172
30
0
10
195.73921880155046
20
10.475675160332031
30
0
10
203.46014336638774
20
10.648032876388536
30
0
10
209.77791780013692
20
10.745912300474409
30
0
10
214.59433322911491
20
10.797136738201921
30
0
10
217.83983978409992
20
10.821466464068044
30
0
10
219.47123381364867
20
10.831176346873303
30
0
0
LINE
5
102
100
AcDbEntity
8
0
100
AcDbLine
10
280
20
13.457101343312381
30
0
11
267.46656974019294
21
13.457101343312381
31
0
0
SPLINE
5
103
100
AcDbEntity
8
0
100
AcDbSpline
70
4
71
5
72
31
73
25
74
0
42
0.000000001
43
0.0000000001
44
0.0000000001
40
0
40
0
40
0
40
0
40
0
40
0
40
0.050000000000000003
40
0.10000000000000001
40
0.15000000000000002
40
0.20000000000000001
40
0.25
40
0.29999999999999999
40
0.34999999999999998
40
0.39999999999999997
40
0.44999999999999996
40
0.49999999999999994
40
0.54999999999999993
40
0.59999999999999998
40
0.65000000000000002
40
0.70000000000000007
40
0.75000000000000011
40
0.80000000000000016
40
0.8500000000000002
40
0.90000000000000024
40
0.95000000000000029
40
1
40
1
40
1
40
1
40
1
40
1
41
1
41
1
41
1
41
1
41
1
41
1
41
1
41
1
41
1
41
1
41
1
41
1
41
1
41
1
41
1
41
1
41
1
41
1
41
1
41
1
41
1
41
1
41
1
41
1
41
1
10
0
20
10.976750070311191
30
0
10
0.16683265712229722
20
10.806650913889662
30
0
10
0.52107612921932822
20
10.469282686435514
30
0
10
1.1141729284661672
20
9.9717206474111801
30
0
10
2.0289607509130727
20
9.3253540743294039
30
0
10
3.3782954810873522
20
8.546457861600981
30
0
10
4.9262867846393457
20
7.7978417920759311
30
0
10
6.6535144077641224
20
7.0814079950301378
30
0
10
8.5260187792697213
20
6.3997529765130494
30
0
10
10.503522277298758
20
5.7559199955223237
30
0
10
12.545758508730829
20
5.1531640509294228
30
0
10
14.61891942395107
20
4.5946939779474381
30
0
10
16.703167726256719
20
4.0833379670914702
30
0
10
18.796173232065271
20
3.6213266124541521
30
0
10
20.906969222682633
20
3.2104023969197195
30
0
10
23.051925159650786
20
2.8518098376080907
30
0
10
25.250013460878911
20
2.5462703674621263
30
0
10
27.518389231871275
20
2.2938947808624381
30
0
10
29.867844381112537
20
2.0940590940868127
30
0
10
32.304381805781567
20
1.9457318400436203
30
0
10
34.830558304236824
20
1.8477496287052917
30
0
10
36.923519841363735
20
1.8087922087171102
30
0
10
38.533472172613685
20
1.8014110499791922
30
0
10
39.624581485688637
20
1.8061560534329457
30
0
10
40.174588087588759
20
1.8109450036893326
30
0
0
SPLINE
5
104
100
AcDbEntity
8
0
100
AcDbSpline
70
4
71
5
72
16
73
10
74
0
42
0.000000001
43
0.0000000001
44
0.0000000001
40
0
40
0
40
0
40
0
40
0
40
0
40
0.20000000000000001
40
0.40000000000000002
40
0.60000000000000009
40
0.80000000000000004
40
1
40
1
40
1
40
1
40
1
40
1
41
1
41
1
41
1
41
1
41
1
41
1
41
1
41
1
41
1
41
1
10
0
20
18.976750070311191
30
0
10
0
20
18.795552784737211
30
0
10
0
20
18.433158213589756
30
0
10
0
20
17.889566356870176
30
0
10
0
20
17.164777214580187
30
0
10
0
20
16.258790786720848
30
0
10
0
20
15.534001644434841
30
0
10
0
20
14.990409787720861
30
0
10
0
20
14.628015216578408
30
0
10
0
20
14.44681793100723
30
0
0
LINE
5
105
100
AcDbEntity
8
0
100
AcDbLine
10
70.182348023742037
20
36.669917378597212
30
0
11
120.18234802374202
21
36.669917378597212
31
0
0
SPLINE
5
106
100
AcDbEntity
8
0
100
AcDbSpline
70
4
71
5
72
26
73
20
74
0
42
0.000000001
43
0.0000000001
44
0.0000000001
40
0
40
0
40
0
40
0
40
0
40
0
40
0.066666666666666666
40
0.13333333333333333
40
0.20000000000000001
40
0.26666666666666666
40
0.33333333333333331
40
0.39999999999999997
40
0.46666666666666662
40
0.53333333333333333
40
0.59999999999999998
40
0.66666666666666663
40
0.73333333333333328
40
0.79999999999999993
40
0.86666666666666659
40
0.93333333333333324
40
1
40
1
40
1
40
1
40
1
40
1
41
1
41
1
41
1
41
1
41
1
41
1
41
1
41
1
41
1
41
1
41
1
41
1
41
1
41
1
41
1
41
1
41
1
41
1
41
1
41
1
10
170.09400523179013
20
28.950455610751327
30
0
10
170.91745157609085
20
28.865933970230586
30
0
10
172.59538842399542
20
28.696935759983067
30
0
10
175.20542468483015
20
28.443573754427163
30
0
10
178.87310187842922
20
28.106029467970703
30
0
10
183.77822160648336
20
27.684845561375798
30
0
10
189.01318631704899
20
27.265258218985263
30
0
10
194.58474336406016
20
26.848996997982564
30
0
10
200.49331297863642
20
26.438881219354432
30
0
10
206.73560002276801
20
26.03830476857955
30
0
10
213.30538150048429
20
25.650788324403429
30
0
10
220.19390723408213
20
25.279512767752458
30
0
10
227.38887272059304
20
24.926743517058213
30
0
10
234.87383945853657
20
24.593434477927264
30
0
10
242.63182583781716
20
24.279748471167757
30
0
10
250.6474288041662
20
23.985364338299977
30
0
10
257.25635981827492
20
23.76489946762911
30
0
10
262.32012777447756
20
23.607811227558248
30
0
10
265.74321533998921
20
23.50673050806369
30
0
10
267.46656974019294
20
23.457101343312381
30
0
0
SPLINE
5
107
100
AcDbEntity
8
0
100
AcDbSpline
70
4
71
5
72
36
73
30
74
0
42
0.000000001
43
0.0000000001
44
0.0000000001
40
0
40
0
40
0
40
0
40
0
40
0
40
0.040000000000000001
40
0.080000000000000002
40
0.12
40
0.16
40
0.20000000000000001
40
0.24000000000000002
40
0.28000000000000003
40
0.32000000000000001
40
0.35999999999999999
40
0.39999999999999997
40
0.43999999999999995
40
0.47999999999999993
40
0.51999999999999991
40
0.55999999999999994
40
0.59999999999999998
40
0.64000000000000001
40
0.68000000000000005
40
0.72000000000000008
40
0.76000000000000012
40
0.80000000000000016
40
0.84000000000000019
40
0.88000000000000023
40
0.92000000000000026
40
0.9600000000000003
40
1
40
1
40
1
40
1
40
1
40
1
41
1
41
1
41
1
41
1
41
1
41
1
41
1
41
1
41
1
41
1
41
1
41
1
41
1
41
1
41
1
41
1
41
1
41
1
41
1
41
1
41
1
41
1
41
1
41
1
41
1
41
1
41
1
41
1
41
1
41
1
10
0
20
18.976750070311191
30
0
10
0.42490805756358824
20
19.202738183421143
30
0
10
1.2788187644963867
20
19.652553899324179
30
0
10
2.5719688270945724
20
20.320796323747047
30
0
10
4.3207990416677227
20
21.198786815313092
30
0
10
6.548166482091009
20
22.27381241025958
30
0
10
8.8170099661321508
20
23.324263959168633
30
0
10
11.12718256297423
20
24.346278811815129
30
0
10
13.477801926015832
20
25.333377742941202
30
0
10
15.868087025584906
20
26.277637923373497
30
0
10
18.298852754529015
20
27.171892249084948
30
0
10
20.773687844884982
20
28.011511821533613
30
0
10
23.300509382969956
20
28.796658513203951
30
0
10
25.892281307305968
20
29.5336576248502
30
0
10
28.563738039230529
20
30.232068011019276
30
0
10
31.328479582915595
20
30.902250650941049
30
0
10
34.196151616783574
20
31.552967764687992
30
0
10
37.168880521743262
20
32.188522654149246
30
0
10
40.240076641461648
20
32.807607491286333
30
0
10
43.397671627844588
20
33.405344003226602
30
0
10
46.62624931461216
20
33.974565550318104
30
0
10
49.909581317842402
20
34.507413784615267
30
0
10
53.23283595050686
20
34.996730682799665
30
0
10
56.585177724192334
20
35.437740587238508
30
0
10
59.959377087045382
20
35.827715907709489
30
0
10
63.350996741006526
20
36.165373675510075
30
0
10
66.076397151765519
20
36.393398529306154
30
0
10
68.126878128015349
20
36.540813238737393
30
0
10
69.496716262343597
20
36.62862653436391
30
0
10
70.182348023742037
20
36.669917378597212
30
0
0
LINE
5
108
100
AcDbEntity
8
0
100
AcDbLine
10
40.174588087588759
20
1.8109450036893326
30
0
11
90.174588087588759
21
1.8109450036893326
31
0
0
SPLINE
5
109
100
AcDbEntity
8
0
100
AcDbSpline
70
4
71
5
72
26
73
20
74
0
42
0.000000001
43
0.0000000001
44
0.0000000001
40
0
40
0
40
0
40
0
40
0
40
0
40
0.066666666666666666
40
0.13333333333333333
40
0.20000000000000001
40
0.26666666666666666
40
0.33333333333333331
40
0.39999999999999997
40
0.46666666666666662
40
0.53333333333333333
40
0.59999999999999998
40
0.66666666666666663
40
0.73333333333333328
40
0.79999999999999993
40
0.86666666666666659
40
0.93333333333333324
40
1
40
1
40
1
40
1
40
1
40
1
41
1
41
1
41
1
41
1
41
1
41
1
41
1
41
1
41
1
41
1
41
1
41
1
41
1
41
1
41
1
41
1
41
1
41
1
41
1
41
1
10
120.18234802374202
20
36.669917378597212
30
0
10
120.70297383245543
20
36.607405958068313
30
0
10
121.7573601085705
20
36.476055960114785
30
0
10
123.37834447579627
20
36.260048697791674
30
0
10
125.61903134206995
20
35.933805332877732
30
0
10
128.55441299506009
20
35.461832032372008
30
0
10
131.62476442838289
20
34.927427699297006
30
0
10
134.82633815652716
20
34.336251314985972
30
0
10
138.14701885182953
20
33.700860879049074
30
0
10
141.56695228638779
20
33.040018867667015
30
0
10
145.06270011672274
20
32.375291999668377
30
0
10
148.61000720723891
20
31.728519367143232
30
0
10
152.1866062573194
20
31.119227131888184
30
0
10
155.77530652184865
20
30.561405467708965
30
0
10
159.36534325769958
20
30.062268086272901
30
0
10
162.95042601424399
20
29.6248538362833
30
0
10
165.81220233182069
20
29.324547876144283
30
0
10
167.95461591900397
20
29.126866907239371
30
0
10
169.38116351691005
20
29.007233648410327
30
0
10
170.09400523179013
20
28.950455610751327
30
0
0
LINE
5
110
100
AcDbEntity
8
0
100
AcDbLine
10
0
20
18.976750070311191
30
0
11
0
21
10.976750070311191
31
0
0
SPLINE
5
111
100
AcDbEntity
8
0
100
AcDbSpline
70
4
71
5
72
36
73
30
74
0
42
0.000000001
43
0.0000000001
44
0.0000000001
40
0
40
0
40
0
40
0
40
0
40
0
40
0.040000000000000001
40
0.080000000000000002
40
0.12
40
0.16
40
0.20000000000000001
40
0.24000000000000002
40
0.28000000000000003
40
0.32000000000000001
40
0.35999999999999999
40
0.39999999999999997
40
0.43999999999999995
40
0.47999999999999993
40
0.51999999999999991
40
0.55999999999999994
40
0.59999999999999998
40
0.64000000000000001
40
0.68000000000000005
40
0.72000000000000008
40
0.76000000000000012
40
0.80000000000000016
40
0.84000000000000019
40
0.88000000000000023
40
0.92000000000000026
40
0.9600000000000003
40
1
40
1
40
1
40
1
40
1
40
1
41
1
41
1
41
1
41
1
41
1
41
1
41
1
41
1
41
1
41
1
41
1
41
1
41
1
41
1
41
1
41
1
41
1
41
1
41
1
41
1
41
1
41
1
41
1
41
1
41
1
41
1
41
1
41
1
41
1
41
1
10
267.46656974019294
20
13.457101343312381
30
0
10
267.02332351884371
20
13.438465637185011
30
0
10
266.14009609749922
20
13.400432064971657
30
0
10
264.82504988260916
20
13.341095268381736
30
0
10
263.09129715284746
20
13.25739436951736
30
0
10
260.95674552476862
20
13.145184174496848
30
0
10
258.8540386544762
20
13.025679645388832
30
0
10
256.7811361634939
20
12.899568486696085
30
0
10
254.73432741668893
20
12.76806657121166
30
0
10
252.70743647662729
20
12.633153903978585
30
0
10
250.69220722663374
20
12.497473021044046
30
0
10
248.68016109892085
20
12.363806984494193
30
0
10
246.66409983218483
20
12.234657411371249
30
0
10
244.6396959606582
20
12.111799839892845
30
0
10
242.60722205805513
20
11.995792727245785
30
0
10
240.57282904229737
20
11.885633100783997
30
0
10
238.54653844350798
20
11.779473081977699
30
0
10
236.54065174401737
20
11.675200520381548
30
0
10
234.56799621670893
20
11.571081090290949
30
0
10
232.64031226307981
20
11.466339132119112
30
0
10
230.76637931241223
20
11.361869000386296
30
0
10
228.95231806768408
20
11.259779724949613
30
0
10
227.202143397995
20
11.162788408103667
30
0
10
225.51818035206267
20
11.073684362313191
30
0
10
223.90148836559729
20
10.994740961265776
30
0
10
222.35223911356587
20
10.927209120551316
30
0
10
221.16653375280612
20
10.882757646268036
30
0
10
220.30724952045003
20
10.854857446275721
30
0
10
219.74768966487602
20
10.838668232230233
30
0
10
219.47123381364867
20
10.831176346873303
30
0
0
SPLINE
5
112
100
AcDbEntity
8
0
100
AcDbSpline
70
0
71
3
72
23
73
19
74
0
42
0.000000001
43
0.0000000001
44
0.0000000001
40
0.11306323999769279
40
0.11306323999769279
40
0.11306323999769279
40
0.11306323999769279
40
0.18111121206458786
40
0.18111121206458786
40
0.18111121206458786
40
0.39630025606467356
40
0.39630025606467356
40
0.39630025606467356
40
0.58651970795770492
40
0.58651970795770492
40
0.58651970795770492
40
0.83634004192730937
40
0.83634004192730937
40
0.83634004192730937
40
1
40
1
40
1
40
1.0003957490095126
40
1.0003957490095126
40
1.0003957490095126
40
1.0003957490095126
10
4.9999999999999769
20
13.405007166119509
30
0
10
5.4219538274548604
20
13.1498721159445
30
0
10
5.9286664797310102
20
12.87802843020815
30
0
10
6.5116426343904621
20
12.601059659735315
30
0
10
8.3551961979366158
20
11.725197483014778
30
0
10
10.99175227276762
20
10.806228489057983
30
0
10
13.768873145465559
20
10.01672297551238
30
0
10
16.223749102092274
20
9.3188282162740279
30
0
10
18.740737249693499
20
8.7178883701302148
30
0
10
21.266555026192005
20
8.2429853102621546
30
0
10
24.583779601237353
20
7.619282319644018
30
0
10
28.025920847177659
20
7.2038986818913067
30
0
10
31.930604702660744
20
6.9861142264293896
30
0
10
34.488604629733238
20
6.8434413131263527
30
0
10
37.224908901993196
20
6.7854514470418534
30
0
10
40.131054348926945
20
6.8107554814572779
30
0
10
40.138309834524506
20
6.8108186555346295
30
0
10
40.145565320122074
20
6.810881829611982
30
0
10
40.152820805719713
20
6.8109450036893353
30
0
0
SPLINE
5
113
100
AcDbEntity
8
0
100
AcDbSpline
70
0
71
3
72
20
73
16
74
0
42
0.000000001
43
0.0000000001
44
0.0000000001
40
-0.99821777155151792
40
-0.99821777155151792
40
-0.99821777155151792
40
-0.99821777155151792
40
-0.7660950407476701
40
-0.7660950407476701
40
-0.7660950407476701
40
-0.56799705858485972
40
-0.56799705858485972
40
-0.56799705858485972
40
-0.38468834915708033
40
-0.38468834915708033
40
-0.38468834915708033
40
-0.20028788993128743
40
-0.20028788993128743
40
-0.20028788993128743
40
-0.050983760392826941
40
-0.050983760392826941
40
-0.050983760392826941
40
-0.050983760392826941
10
70.333626120090941
20
31.669917378597212
30
0
10
63.852510618312607
20
31.275124767018024
30
0
10
57.434583325182452
20
30.584202135724396
30
0
10
51.176198808591565
20
29.630867559655954
30
0
10
45.835173653311614
20
28.817273582059748
30
0
10
40.625752745686405
20
27.826592511976358
30
0
10
35.871597705207073
20
26.791805548829643
30
0
10
31.472370538048953
20
25.83427200570037
30
0
10
27.505372781938227
20
24.84719660000216
30
0
10
23.811820705183141
20
23.710638295861656
30
0
10
20.096270575273149
20
22.5673108790977
30
0
10
16.578726393391872
20
21.236985473367298
30
0
10
13.131763947184606
20
19.75251707867335
30
0
10
10.340850466038823
20
18.550582645170948
30
0
10
7.6233871622489762
20
17.267090400381385
30
0
10
5.0000000000000435
20
15.938676022896953
30
0
0
LINE
5
114
100
AcDbEntity
8
0
100
AcDbLine
10
119.88064436623989
20
31.669917378597212
30
0
11
119.88064436668225
21
10.136447867850872
31
0
0
SPLINE
5
115
100
AcDbEntity
8
0
100
AcDbSpline
70
0
71
3
72
11
73
7
74
0
42
0.000000001
43
0.0000000001
44
0.0000000001
40
0.0025251519672683724
40
0.0025251519672683724
40
0.0025251519672683724
40
0.0025251519672683724
40
0.26137886251022557
40
0.26137886251022557
40
0.26137886251022557
40
0.27745150083474568
40
0.27745150083474568
40
0.27745150083474568
40
0.27745150083474568
10
89.906951776956632
20
6.8109450036893362
30
0
10
98.994507266429238
20
7.7869984531274508
30
0
10
108.31578831257866
20
8.8443426156481184
30
0
10
118.05977885757549
20
9.9334872887021515
30
0
10
118.66479871817079
20
10.001114012600976
30
0
10
119.27172530703825
20
10.068783548719704
30
0
10
119.88064436656857
20
10.136447867838241
30
0
0
LINE
5
116
100
AcDbEntity
8
0
100
AcDbLine
10
70.333626120090941
20
31.669917378597212
30
0
11
70.333626120090941
21
6.8109450036893362
31
0
0
LINE
5
117
100
AcDbEntity
8
0
100
AcDbLine
10
-9.2000000000000011
20
-70.333626120090941
30
24.858972374907875
11
-9.2000000000000011
21
-78.333626120090941
31
24.858972374907875
0
CIRCLE
5
118
100
AcDbEntity
8
0
100
AcDbCircle
10
85.000137674945918
20
34.919917378597212
30
0
40
0.74999999999999289
210
0
220
0
230
1
0
LINE
5
119
100
AcDbEntity
8
0
100
AcDbLine
10
78.333583697856881
20
31.669917378597212
30
0
11
78.333583697856881
21
6.8109450036893362
31
0
0
LINE
5
120
100
AcDbEntity
8
0
100
AcDbLine
10
119.88064436623989
20
31.669917378597212
30
0
11
78.333583697856881
21
31.669917378597212
31
0
0
LINE
5
121
100
AcDbEntity
8
0
100
AcDbLine
10
40.152820805719713
20
6.8109450036893362
30
0
11
70.333626120090941
21
6.8109450036893362
31
0
0
LINE
5
122
100
AcDbEntity
8
0
100
AcDbLine
10
78.333583697856881
20
6.8109450036893362
30
0
11
89.906951776956632
21
6.8109450036893362
31
0
0
LINE
5
123
100
AcDbEntity
8
0
100
AcDbLine
10
5.0000000000000444
20
15.938676022896953
30
0
11
4.9999999999999769
21
13.405007166119509
31
0
0
LINE
5
124
100
AcDbEntity
8
0
100
AcDbLine
10
280
20
13.457101343312381
30
0
11
284.15000000000003
21
13.457101343312381
31
0
0
LINE
5
125
100
AcDbEntity
8
0
100
AcDbLine
10
284.15000000000003
20
20.457101343312381
30
0
11
256.35000000000002
21
20.457101343312381
31
0
0
LINE
5
126
100
AcDbEntity
8
0
100
AcDbLine
10
256.35000000000002
20
20.457101343312381
30
0
11
256.35000000000002
21
17.257101343312382
31
0
0
LINE
5
127
100
AcDbEntity
8
0
100
AcDbLine
10
256.35000000000002
20
17.257101343312382
30
0
11
284.15000000000003
21
17.257101343312382
31
0
0
LINE
5
128
100
AcDbEntity
8
0
100
AcDbLine
10
267.46656974019294
20
23.457101343312381
30
0
11
284.15000000000003
21
23.457101343312381
31
0
0
LINE
5
129
100
AcDbEntity
8
0
100
AcDbLine
10
284.15000000000003
20
13.457101343312381
30
0
11
284.15000000000003
21
17.257101343312382
31
0
0
LINE
5
130
100
AcDbEntity
8
0
100
AcDbLine
10
284.15000000000003
20
20.457101343312381
30
0
11
284.15000000000003
21
23.457101343312381
31
0
0
ENDSEC
0
SECTION
2
OBJECTS
0
DICTIONARY
5
C
100
AcDbDictionary
3
ACAD_GROUP
350
D
3
ACAD_MLINESTYLE
350
17
0
DICTIONARY
5
D
100
AcDbDictionary
0
DICTIONARY
5
1A
330
C
100
AcDbDictionary
0
DICTIONARY
5
17
100
AcDbDictionary
0
ENDSEC
0
EOF
